<svg xmlns="http://www.w3.org/2000/svg" xmlns:xlink="http://www.w3.org/1999/xlink" width="900" zoomAndPan="magnify" viewBox="0 0 675 187.499995" height="250" preserveAspectRatio="xMidYMid meet" version="1.0"><defs><g/></defs><g fill="#ffffff" fill-opacity="1"><g transform="translate(118.500833, 120.992879)"><g><path d="M 210.03125 -54.421875 C 210.71875 -54.285156 211.257812 -54 211.65625 -53.5625 C 212.0625 -53.132812 212.148438 -52.71875 211.921875 -52.3125 C 211.660156 -51.9375 211.375 -51.703125 211.0625 -51.609375 C 210.75 -51.523438 210.40625 -51.515625 210.03125 -51.578125 C 209.5625 -51.578125 209.082031 -51.609375 208.59375 -51.671875 C 201.75 -51.867188 192.671875 -51.46875 181.359375 -50.46875 C 170.054688 -49.476562 160.953125 -48.507812 154.046875 -47.5625 C 148.710938 -46.875 143.382812 -46.125 138.0625 -45.3125 C 137.945312 -45.3125 137.785156 -45.269531 137.578125 -45.1875 C 135.367188 -44.863281 133.34375 -44.039062 131.5 -42.71875 C 124.726562 -38.113281 117.726562 -33.9375 110.5 -30.1875 C 103.269531 -26.445312 95.894531 -22.960938 88.375 -19.734375 C 76.195312 -14.347656 63.742188 -9.65625 51.015625 -5.65625 C 48.421875 -4.96875 46.519531 -3.382812 45.3125 -0.90625 C 39.664062 10.351562 33.773438 21.367188 27.640625 32.140625 C 22.203125 41.734375 16.976562 51.4375 11.96875 61.25 C 11.96875 61.3125 11.9375 61.367188 11.875 61.421875 C 11.675781 61.941406 11.421875 62.363281 11.109375 62.6875 C 10.585938 63.113281 9.976562 63.269531 9.28125 63.15625 C 8.90625 63.269531 8.535156 63.269531 8.171875 63.15625 C 7.390625 62.84375 7 62.265625 7 61.421875 C 7.082031 60.046875 7.53125 58.753906 8.34375 57.546875 C 8.394531 57.484375 8.421875 57.410156 8.421875 57.328125 C 13.492188 48.222656 18.484375 39.117188 23.390625 30.015625 C 28.296875 20.921875 33.039062 11.691406 37.625 2.328125 C 38 1.554688 38.375 0.765625 38.75 -0.046875 C 38.894531 -0.441406 39.050781 -0.859375 39.21875 -1.296875 C 38.789062 -1.410156 38.390625 -1.507812 38.015625 -1.59375 C 37.296875 -1.445312 36.585938 -1.25 35.890625 -1 C 35.640625 -0.9375 35.394531 -0.847656 35.15625 -0.734375 C 26.289062 1.796875 17.320312 3.957031 8.25 5.75 C 1.96875 6.875 -4.335938 7.664062 -10.671875 8.125 C -10.984375 8.175781 -11.269531 8.203125 -11.53125 8.203125 C -12.164062 8.265625 -12.800781 8.296875 -13.4375 8.296875 C -15.882812 8.296875 -18.257812 7.921875 -20.5625 7.171875 C -22.320312 6.535156 -23.375 5.53125 -23.71875 4.15625 C -24.0625 2.789062 -23.644531 1.316406 -22.46875 -0.265625 C -20.882812 -2.109375 -19.007812 -3.617188 -16.84375 -4.796875 C -11.945312 -7.847656 -6.804688 -10.351562 -1.421875 -12.3125 C 12.941406 -17.75 27.515625 -22.53125 42.296875 -26.65625 C 43.097656 -26.914062 43.945312 -27.144531 44.84375 -27.34375 C 46.738281 -27.71875 48.503906 -28.269531 50.140625 -29 C 51.785156 -29.738281 53.03125 -31.015625 53.875 -32.828125 C 56.976562 -40.003906 59.96875 -47.179688 62.84375 -54.359375 C 65.726562 -61.546875 68.410156 -68.851562 70.890625 -76.28125 C 70.890625 -76.34375 70.914062 -76.429688 70.96875 -76.546875 C 71.34375 -77.898438 71.847656 -79.164062 72.484375 -80.34375 C 72.742188 -80.75 73.082031 -81.03125 73.5 -81.1875 C 73.914062 -81.34375 74.34375 -81.378906 74.78125 -81.296875 C 75.09375 -81.378906 75.4375 -81.378906 75.8125 -81.296875 C 76.757812 -81.066406 77.304688 -80.429688 77.453125 -79.390625 C 77.453125 -77.429688 77.09375 -75.53125 76.375 -73.6875 C 76.375 -73.632812 76.34375 -73.550781 76.28125 -73.4375 C 73.175781 -63.9375 69.691406 -54.59375 65.828125 -45.40625 C 64.828125 -42.863281 63.789062 -40.359375 62.71875 -37.890625 C 62.320312 -36.992188 61.9375 -36.070312 61.5625 -35.125 C 61.070312 -34 60.867188 -33.226562 60.953125 -32.8125 C 61.035156 -32.394531 61.328125 -32.195312 61.828125 -32.21875 C 62.335938 -32.25 62.953125 -32.394531 63.671875 -32.65625 C 63.898438 -32.71875 64.144531 -32.773438 64.40625 -32.828125 C 67.195312 -33.546875 69.988281 -34.253906 72.78125 -34.953125 C 77.851562 -36.210938 82.953125 -37.476562 88.078125 -38.75 C 100.640625 -41.71875 113.28125 -44.25 126 -46.34375 C 128.28125 -46.71875 130.269531 -47.597656 131.96875 -48.984375 C 135.59375 -51.722656 139.175781 -54.941406 142.71875 -58.640625 C 146.257812 -62.335938 149.191406 -66.320312 151.515625 -70.59375 C 153.835938 -74.875 154.878906 -79.269531 154.640625 -83.78125 C 154.410156 -88.289062 152.335938 -92.757812 148.421875 -97.1875 C 145.890625 -99.84375 143.007812 -102.0625 139.78125 -103.84375 C 132.988281 -107.5 124.828125 -110.179688 115.296875 -111.890625 C 105.765625 -113.609375 95.546875 -114.519531 84.640625 -114.625 C 73.742188 -114.726562 62.832031 -114.171875 51.90625 -112.953125 C 40.976562 -111.742188 30.742188 -110.066406 21.203125 -107.921875 C 11.671875 -105.785156 3.492188 -103.347656 -3.328125 -100.609375 C -9.234375 -98.273438 -14.847656 -95.394531 -20.171875 -91.96875 C -22.328125 -90.644531 -24.351562 -89.191406 -26.25 -87.609375 C -28.15625 -86.023438 -29.859375 -84.207031 -31.359375 -82.15625 C -31.929688 -81.269531 -32.695312 -80.796875 -33.65625 -80.734375 C -33.851562 -80.734375 -34.082031 -80.734375 -34.34375 -80.734375 C -34.394531 -80.734375 -34.453125 -80.734375 -34.515625 -80.734375 C -34.890625 -80.734375 -35.25 -80.78125 -35.59375 -80.875 C -35.9375 -80.976562 -36.210938 -81.191406 -36.421875 -81.515625 C -36.535156 -81.773438 -36.59375 -82.039062 -36.59375 -82.3125 C -36.59375 -82.582031 -36.5625 -82.820312 -36.5 -83.03125 C -36.007812 -84.175781 -35.347656 -85.1875 -34.515625 -86.0625 C -33.679688 -86.945312 -32.832031 -87.804688 -31.96875 -88.640625 C -29.664062 -90.597656 -27.265625 -92.367188 -24.765625 -93.953125 C -22.273438 -95.535156 -19.722656 -97.019531 -17.109375 -98.40625 C -10.398438 -101.976562 -1.820312 -105.1875 8.625 -108.03125 C 19.082031 -110.882812 30.566406 -113.179688 43.078125 -114.921875 C 55.597656 -116.671875 68.207031 -117.625 80.90625 -117.78125 C 93.601562 -117.9375 105.492188 -117.09375 116.578125 -115.25 C 127.671875 -113.40625 137.117188 -110.320312 144.921875 -106 C 148.410156 -104.101562 151.535156 -101.671875 154.296875 -98.703125 C 158.191406 -94.328125 160.40625 -90 160.9375 -85.71875 C 161.46875 -81.445312 160.875 -77.300781 159.15625 -73.28125 C 157.445312 -69.269531 155.085938 -65.441406 152.078125 -61.796875 C 149.066406 -58.148438 145.976562 -54.742188 142.8125 -51.578125 C 142.4375 -51.265625 142.0625 -50.867188 141.6875 -50.390625 C 141.3125 -49.910156 141.148438 -49.515625 141.203125 -49.203125 C 141.265625 -48.890625 141.742188 -48.789062 142.640625 -48.90625 C 153.265625 -50.625 163.867188 -51.921875 174.453125 -52.796875 C 185.035156 -53.679688 195.679688 -54.285156 206.390625 -54.609375 C 206.710938 -54.609375 207.003906 -54.609375 207.265625 -54.609375 L 207.34375 -54.609375 C 208.238281 -54.609375 209.132812 -54.546875 210.03125 -54.421875 Z M 42.765625 -8.34375 C 42.992188 -8.914062 43.425781 -9.734375 44.0625 -10.796875 C 44.957031 -12.492188 45.894531 -14.375 46.875 -16.4375 C 47.851562 -18.5 48.5625 -20.304688 49 -21.859375 C 49.445312 -23.410156 49.226562 -24.257812 48.34375 -24.40625 C 47.789062 -24.320312 47.253906 -24.191406 46.734375 -24.015625 C 46.617188 -24.015625 46.460938 -23.988281 46.265625 -23.9375 C 44.242188 -23.300781 42.210938 -22.695312 40.171875 -22.125 C 35.304688 -20.707031 30.425781 -19.207031 25.53125 -17.625 C 25.300781 -17.5625 25.054688 -17.472656 24.796875 -17.359375 C 16.035156 -14.679688 7.410156 -11.601562 -1.078125 -8.125 C -5.367188 -6.363281 -9.445312 -4.21875 -13.3125 -1.6875 C -14.78125 -0.851562 -15.988281 0.253906 -16.9375 1.640625 C -17.3125 2.210938 -17.414062 2.738281 -17.25 3.21875 C -17.09375 3.695312 -16.695312 4.0625 -16.0625 4.3125 C -14.738281 4.75 -13.390625 4.96875 -12.015625 4.96875 C -10.796875 4.96875 -9.582031 4.910156 -8.375 4.796875 C -8.320312 4.796875 -8.296875 4.796875 -8.296875 4.796875 C -2.015625 4.160156 4.160156 3.140625 10.234375 1.734375 C 19.878906 -0.398438 29.410156 -2.894531 38.828125 -5.75 C 38.972656 -5.832031 39.078125 -5.875 39.140625 -5.875 C 39.890625 -6.050781 40.578125 -6.3125 41.203125 -6.65625 C 41.835938 -7 42.359375 -7.5625 42.765625 -8.34375 Z M 50.84375 -10.015625 C 56.539062 -11.484375 64.300781 -14.226562 74.125 -18.25 C 83.945312 -22.269531 93.382812 -26.519531 102.4375 -31 C 111.5 -35.476562 117.671875 -39.171875 120.953125 -42.078125 C 120.523438 -42.078125 120.148438 -42.078125 119.828125 -42.078125 C 119.679688 -42.078125 119.582031 -42.078125 119.53125 -42.078125 C 99.625 -38.128906 79.925781 -33.429688 60.4375 -27.984375 C 58.707031 -27.492188 57.523438 -26.457031 56.890625 -24.875 C 55.710938 -22.34375 54.546875 -19.835938 53.390625 -17.359375 C 52.492188 -15.515625 51.601562 -13.644531 50.71875 -11.75 C 50.601562 -11.488281 50.53125 -11.195312 50.5 -10.875 C 50.46875 -10.5625 50.582031 -10.273438 50.84375 -10.015625 Z M 50.84375 -10.015625 "/></g></g></g><g fill="#ffffff" fill-opacity="1"><g transform="translate(239.61605, 120.992879)"><g><path d="M 20.734375 -26.515625 C 20.472656 -24.535156 19.535156 -23.242188 17.921875 -22.640625 C 16.316406 -22.035156 15.789062 -22.828125 16.34375 -25.015625 C 16.90625 -27.203125 15.921875 -27.753906 13.390625 -26.671875 C 10.859375 -25.585938 8.769531 -24.226562 7.125 -22.59375 C 4.59375 -20 2.347656 -17.207031 0.390625 -14.21875 C 0.191406 -13.957031 0.03125 -13.738281 -0.09375 -13.5625 C -0.664062 -12.726562 -1.238281 -11.9375 -1.8125 -11.1875 C -2.1875 -10.664062 -2.625 -10.335938 -3.125 -10.203125 C -3.632812 -10.078125 -4.148438 -10.0625 -4.671875 -10.15625 C -5.160156 -10.207031 -5.53125 -10.390625 -5.78125 -10.703125 C -6.039062 -11.023438 -6.070312 -11.40625 -5.875 -11.84375 C -5.5625 -12.613281 -5.1875 -13.40625 -4.75 -14.21875 C -2.15625 -19.019531 0.476562 -23.84375 3.15625 -28.6875 C 3.207031 -28.738281 3.234375 -28.796875 3.234375 -28.859375 C 3.609375 -29.609375 4.054688 -30.296875 4.578125 -30.921875 C 5.148438 -31.554688 5.8125 -31.816406 6.5625 -31.703125 C 7.3125 -31.585938 7.816406 -31.144531 8.078125 -30.375 C 8.390625 -29.363281 8.660156 -28.789062 8.890625 -28.65625 C 9.128906 -28.53125 9.648438 -28.625 10.453125 -28.9375 C 12.179688 -29.570312 13.863281 -30.019531 15.5 -30.28125 C 17.144531 -30.539062 18.492188 -30.472656 19.546875 -30.078125 C 20.597656 -29.691406 20.992188 -28.503906 20.734375 -26.515625 Z M 20.734375 -26.515625 "/></g></g></g><g fill="#ffffff" fill-opacity="1"><g transform="translate(261.212914, 120.992879)"><g><path d="M 17.171875 -18.203125 C 15.628906 -16.378906 13.804688 -14.703125 11.703125 -13.171875 C 9.597656 -11.648438 7.222656 -10.617188 4.578125 -10.078125 C 1.929688 -9.546875 -0.125 -9.738281 -1.59375 -10.65625 C -3.0625 -11.582031 -3.351562 -13.628906 -2.46875 -16.796875 C -1.3125 -20.085938 0.273438 -23.210938 2.296875 -26.171875 C 2.753906 -26.804688 3.414062 -27.253906 4.28125 -27.515625 C 4.914062 -27.660156 5.46875 -27.550781 5.9375 -27.1875 C 6.414062 -26.832031 6.597656 -26.378906 6.484375 -25.828125 C 6.046875 -24.796875 5.566406 -23.757812 5.046875 -22.71875 C 4.535156 -21.6875 4.191406 -21.007812 4.015625 -20.6875 C 3.003906 -18.84375 2.300781 -16.914062 1.90625 -14.90625 C 1.90625 -13.75 3.441406 -13.675781 6.515625 -14.6875 C 9.597656 -15.695312 12.59375 -17.546875 15.5 -20.234375 C 18.414062 -22.929688 19.804688 -23.722656 19.671875 -22.609375 C 19.546875 -21.503906 18.710938 -20.035156 17.171875 -18.203125 Z M 9.640625 -32.65625 C 9.492188 -32.539062 9.195312 -32.40625 8.75 -32.25 C 8.300781 -32.09375 7.820312 -31.976562 7.3125 -31.90625 C 6.8125 -31.832031 6.414062 -31.910156 6.125 -32.140625 C 5.84375 -32.367188 5.832031 -32.828125 6.09375 -33.515625 C 6.550781 -34.722656 7.03125 -35.78125 7.53125 -36.6875 C 8.039062 -37.601562 8.695312 -38.609375 9.5 -39.703125 C 10.019531 -40.191406 10.582031 -40.457031 11.1875 -40.5 C 11.789062 -40.539062 12.296875 -40.378906 12.703125 -40.015625 C 13.109375 -39.660156 13.222656 -39.164062 13.046875 -38.53125 C 12.410156 -36.257812 11.273438 -34.300781 9.640625 -32.65625 Z M 9.640625 -32.65625 "/></g></g></g><g fill="#ffffff" fill-opacity="1"><g transform="translate(278.058469, 120.992879)"><g><path d="M 33.90625 -22.515625 C 34.28125 -21.785156 33.660156 -20.664062 32.046875 -19.15625 C 30.441406 -17.644531 27.609375 -15.8125 23.546875 -13.65625 C 22.015625 -13.019531 20.90625 -12.515625 20.21875 -12.140625 C 19.53125 -11.765625 19.023438 -11.285156 18.703125 -10.703125 C 18.390625 -10.128906 18.046875 -9.238281 17.671875 -8.03125 C 17.347656 -7.144531 16.929688 -5.953125 16.421875 -4.453125 C 15.722656 -2.609375 15.03125 -0.707031 14.34375 1.25 C 13.070312 5.25 11.566406 9.203125 9.828125 13.109375 C 8.085938 17.015625 5.832031 20.421875 3.0625 23.328125 C 0.300781 26.234375 -3.253906 28.160156 -7.609375 29.109375 C -11.984375 29.953125 -16.210938 30.082031 -20.296875 29.5 C -24.390625 28.925781 -28.394531 27.789062 -32.3125 26.09375 C -33.894531 25.375 -35.320312 24.421875 -36.59375 23.234375 C -38.6875 21.078125 -38.84375 18.660156 -37.0625 15.984375 C -36.113281 14.660156 -35.003906 13.460938 -33.734375 12.390625 C -31.203125 10.347656 -28.550781 8.476562 -25.78125 6.78125 C -20.632812 3.664062 -15.367188 0.816406 -9.984375 -1.765625 C -4.597656 -4.359375 0.84375 -6.863281 6.34375 -9.28125 C 6.71875 -9.457031 7.140625 -9.644531 7.609375 -9.84375 C 9.097656 -10.539062 10.632812 -11.234375 12.21875 -11.921875 C 13.3125 -12.328125 14.046875 -13.0625 14.421875 -14.125 C 14.535156 -14.5 14.566406 -14.84375 14.515625 -15.15625 C 14.453125 -15.363281 14.34375 -15.476562 14.1875 -15.5 C 14.03125 -15.53125 13.851562 -15.488281 13.65625 -15.375 C 13.101562 -15.0625 12.539062 -14.703125 11.96875 -14.296875 C 11.644531 -14.128906 11.296875 -13.914062 10.921875 -13.65625 C 8.941406 -12.5 6.882812 -11.992188 4.75 -12.140625 C 1.382812 -12.140625 -0.328125 -13.648438 -0.390625 -16.671875 C -0.441406 -19.148438 -0.015625 -21.5 0.890625 -23.71875 C 1.796875 -25.9375 3.082031 -28.023438 4.75 -29.984375 C 4.925781 -30.179688 5.171875 -30.34375 5.484375 -30.46875 C 5.804688 -30.601562 6.125 -30.695312 6.4375 -30.75 C 6.488281 -30.75 6.5625 -30.78125 6.65625 -30.84375 C 7.289062 -30.894531 7.78125 -30.734375 8.125 -30.359375 C 8.46875 -29.992188 8.539062 -29.519531 8.34375 -28.9375 C 7.96875 -28.132812 7.59375 -27.316406 7.21875 -26.484375 C 6.894531 -25.847656 6.578125 -25.210938 6.265625 -24.578125 C 4.992188 -22.097656 4.414062 -19.503906 4.53125 -16.796875 C 4.59375 -16.222656 4.847656 -15.804688 5.296875 -15.546875 C 5.742188 -15.285156 6.253906 -15.285156 6.828125 -15.546875 C 8.523438 -16.242188 10.007812 -17.222656 11.28125 -18.484375 C 14.707031 -21.597656 17.523438 -25.1875 19.734375 -29.25 C 20.054688 -29.820312 20.425781 -30.304688 20.84375 -30.703125 C 21.257812 -31.109375 21.8125 -31.34375 22.5 -31.40625 C 23.394531 -31.488281 24.078125 -31.289062 24.546875 -30.8125 C 25.023438 -30.34375 25.164062 -29.71875 24.96875 -28.9375 C 24.164062 -26.34375 23.316406 -23.78125 22.421875 -21.25 C 22.359375 -21.050781 22.285156 -20.863281 22.203125 -20.6875 C 21.972656 -20.113281 21.753906 -19.507812 21.546875 -18.875 C 21.347656 -18.238281 21.25 -17.679688 21.25 -17.203125 C 21.25 -16.734375 21.453125 -16.5 21.859375 -16.5 C 23.441406 -16.820312 25.75 -18.085938 28.78125 -20.296875 C 31.820312 -22.515625 33.53125 -23.253906 33.90625 -22.515625 Z M 11.28125 -5.1875 C 11.28125 -5.332031 11.320312 -5.460938 11.40625 -5.578125 C 11.570312 -5.890625 11.671875 -6.234375 11.703125 -6.609375 C 11.734375 -6.984375 11.632812 -7.375 11.40625 -7.78125 C 11.207031 -7.78125 11.046875 -7.78125 10.921875 -7.78125 C 10.523438 -7.6875 10.164062 -7.582031 9.84375 -7.46875 C 9.21875 -7.207031 8.585938 -6.921875 7.953125 -6.609375 C 2.878906 -4.273438 -2.1875 -1.875 -7.25 0.59375 C -12.320312 3.070312 -17.289062 5.710938 -22.15625 8.515625 C -25.125 10.210938 -27.921875 12.195312 -30.546875 14.46875 C -32.671875 16.375 -33.691406 18.035156 -33.609375 19.453125 C -33.523438 20.878906 -32.269531 22.171875 -29.84375 23.328125 C -24.34375 26.179688 -18.425781 27.347656 -12.09375 26.828125 C -7.769531 26.390625 -4.257812 24.757812 -1.5625 21.9375 C 1.125 19.125 3.320312 15.75 5.03125 11.8125 C 6.75 7.882812 8.238281 3.960938 9.5 0.046875 C 10.050781 -1.796875 10.644531 -3.539062 11.28125 -5.1875 Z M 11.28125 -5.1875 "/></g></g></g><g fill="#ffffff" fill-opacity="1"><g transform="translate(309.503504, 120.992879)"><g><path d="M 31.34375 -22 C 32.019531 -21.613281 32.066406 -20.675781 31.484375 -19.1875 C 30.648438 -18.082031 29.757812 -17.054688 28.8125 -16.109375 C 27.863281 -15.160156 26.828125 -14.3125 25.703125 -13.5625 C 25.617188 -13.5625 25.578125 -13.535156 25.578125 -13.484375 C 24.828125 -12.960938 24.035156 -12.515625 23.203125 -12.140625 C 16.316406 -9.660156 12.800781 -11.113281 12.65625 -16.5 C 9.863281 -14.082031 7.992188 -12.597656 7.046875 -12.046875 C 4.765625 -10.691406 2.300781 -10.085938 -0.34375 -10.234375 C -2.300781 -10.347656 -3.632812 -10.945312 -4.34375 -12.03125 C -5.050781 -13.113281 -4.984375 -14.578125 -4.140625 -16.421875 C -2.878906 -19.328125 -1.082031 -21.914062 1.25 -24.1875 C 3.988281 -26.71875 7.03125 -28.75 10.375 -30.28125 C 12.15625 -31.175781 14.023438 -31.519531 15.984375 -31.3125 C 17.941406 -31.195312 19.125 -30.085938 19.53125 -27.984375 C 19.695312 -27.359375 19.535156 -26.800781 19.046875 -26.3125 C 18.410156 -25.726562 17.675781 -25.597656 16.84375 -25.921875 C 16.789062 -25.921875 16.710938 -25.929688 16.609375 -25.953125 C 16.503906 -25.984375 16.425781 -26.03125 16.375 -26.09375 C 15.539062 -27.238281 14.695312 -27.71875 13.84375 -27.53125 C 13 -27.34375 12.097656 -26.960938 11.140625 -26.390625 C 6.710938 -23.796875 3.414062 -20.179688 1.25 -15.546875 C 1.132812 -15.347656 1.0625 -15.125 1.03125 -14.875 C 1.007812 -14.632812 1.082031 -14.441406 1.25 -14.296875 C 1.769531 -14.128906 2.347656 -14.164062 2.984375 -14.40625 C 3.617188 -14.65625 4.25 -15.015625 4.875 -15.484375 C 5.507812 -15.960938 6.046875 -16.359375 6.484375 -16.671875 C 6.535156 -16.753906 6.5625 -16.796875 6.5625 -16.796875 C 8.664062 -18.554688 10.726562 -20.359375 12.75 -22.203125 C 13.632812 -23.148438 14.738281 -23.679688 16.0625 -23.796875 C 17.96875 -23.796875 18.765625 -22.945312 18.453125 -21.25 C 18.273438 -20.613281 18.085938 -19.984375 17.890625 -19.359375 C 17.140625 -16.617188 17.109375 -15.007812 17.796875 -14.53125 C 18.484375 -14.0625 19.539062 -14.0625 20.96875 -14.53125 C 22.394531 -15.007812 23.820312 -15.914062 25.25 -17.25 C 26.675781 -18.59375 27.878906 -19.816406 28.859375 -20.921875 C 29.835938 -22.035156 30.664062 -22.394531 31.34375 -22 Z M 31.34375 -22 "/></g></g></g><g fill="#ffffff" fill-opacity="1"><g transform="translate(338.14096, 120.992879)"><g><path d="M 34.21875 -21.5625 C 34.675781 -20.976562 34.097656 -19.921875 32.484375 -18.390625 C 30.867188 -16.867188 29.15625 -15.585938 27.34375 -14.546875 C 25.53125 -13.515625 23.425781 -12.484375 21.03125 -11.453125 C 19.445312 -10.753906 17.765625 -10.519531 15.984375 -10.75 C 14.203125 -10.988281 13.3125 -12.070312 13.3125 -14 C 13.3125 -15.925781 13.753906 -17.835938 14.640625 -19.734375 C 15.535156 -21.691406 15.726562 -22.695312 15.21875 -22.75 C 14.71875 -22.8125 13.675781 -22.34375 12.09375 -21.34375 C 7.976562 -18.632812 4.148438 -15.535156 0.609375 -12.046875 C -0.347656 -10.898438 -1.5625 -10.269531 -3.03125 -10.15625 C -3.769531 -10.15625 -4.347656 -10.390625 -4.765625 -10.859375 C -5.191406 -11.335938 -5.242188 -11.847656 -4.921875 -12.390625 C -2.390625 -17.085938 0.171875 -21.726562 2.765625 -26.3125 C 3.335938 -27.257812 4.203125 -27.847656 5.359375 -28.078125 C 5.847656 -28.160156 6.300781 -28.007812 6.71875 -27.625 C 7.132812 -27.238281 7.34375 -26.800781 7.34375 -26.3125 C 7.28125 -25.84375 7.09375 -25.296875 6.78125 -24.671875 C 6.632812 -24.296875 6.492188 -23.929688 6.359375 -23.578125 C 6.234375 -23.234375 6.191406 -22.945312 6.234375 -22.71875 C 6.285156 -22.488281 6.46875 -22.414062 6.78125 -22.5 C 7.21875 -22.726562 7.648438 -22.972656 8.078125 -23.234375 C 9.171875 -23.867188 10.222656 -24.472656 11.234375 -25.046875 C 12.128906 -25.566406 13.066406 -26.03125 14.046875 -26.4375 C 15.023438 -26.84375 16.046875 -27.113281 17.109375 -27.25 C 18.835938 -27.375 20.0625 -26.988281 20.78125 -26.09375 C 21.5 -25.195312 21.582031 -23.957031 21.03125 -22.375 C 20.457031 -20.9375 19.851562 -19.507812 19.21875 -18.09375 C 18.445312 -16.769531 18.316406 -15.765625 18.828125 -15.078125 C 19.347656 -14.390625 21.753906 -15.179688 26.046875 -17.453125 L 29.28125 -19.359375 C 32.332031 -21.316406 33.976562 -22.050781 34.21875 -21.5625 Z M 34.21875 -21.5625 "/></g></g></g><g fill="#ffffff" fill-opacity="1"><g transform="translate(369.801976, 120.992879)"><g><path d="M 20.90625 -21.90625 C 16.351562 -20.207031 13.070312 -18.820312 11.0625 -17.75 C 9.59375 -17.03125 8.75 -16.429688 8.53125 -15.953125 C 8.3125 -15.484375 8.476562 -14.613281 9.03125 -13.34375 C 9.03125 -13.289062 9.070312 -13.207031 9.15625 -13.09375 C 9.789062 -11.5625 10.164062 -9.976562 10.28125 -8.34375 C 10.476562 -5.03125 7.660156 -2.707031 1.828125 -1.375 C -3.992188 -0.0507812 -7.890625 -0.0078125 -9.859375 -1.25 C -11.835938 -2.488281 -12.445312 -4.054688 -11.6875 -5.953125 C -10.925781 -7.859375 -8.945312 -9.789062 -5.75 -11.75 C -2.550781 -13.707031 -0.410156 -15.117188 0.671875 -15.984375 C 1.753906 -16.847656 2.078125 -17.8125 1.640625 -18.875 C 1.492188 -19.25 1.335938 -19.625 1.171875 -20 C 0.796875 -20.894531 0.40625 -21.816406 0 -22.765625 C -0.75 -24.492188 -1.070312 -26.191406 -0.96875 -27.859375 C -0.875 -29.535156 -0.257812 -30.941406 0.875 -32.078125 C 2.019531 -33.210938 3.785156 -33.820312 6.171875 -33.90625 C 7.523438 -33.96875 8.734375 -33.789062 9.796875 -33.375 C 10.867188 -32.957031 11.722656 -32.1875 12.359375 -31.0625 C 12.867188 -30.28125 12.707031 -29.570312 11.875 -28.9375 C 11.332031 -28.507812 10.742188 -28.453125 10.109375 -28.765625 C 9.703125 -28.941406 9.3125 -29.1875 8.9375 -29.5 C 8.9375 -29.59375 8.9375 -29.640625 8.9375 -29.640625 C 8.769531 -29.753906 8.613281 -29.867188 8.46875 -29.984375 C 8.289062 -30.242188 8.101562 -30.441406 7.90625 -30.578125 C 7.15625 -31.128906 6.398438 -31.296875 5.640625 -31.078125 C 4.878906 -30.859375 4.3125 -30.273438 3.9375 -29.328125 C 3.675781 -28.578125 3.546875 -27.816406 3.546875 -27.046875 C 3.597656 -26.085938 3.8125 -25.164062 4.1875 -24.28125 C 4.445312 -23.726562 4.675781 -23.222656 4.875 -22.765625 C 5.363281 -21.492188 5.765625 -20.617188 6.078125 -20.140625 C 6.398438 -19.671875 6.785156 -19.472656 7.234375 -19.546875 C 7.679688 -19.617188 11.765625 -21.082031 19.484375 -23.9375 C 21.148438 -24.476562 21.625 -23.800781 20.90625 -21.90625 Z M 2.203125 -5.40625 C 4.222656 -6.09375 5.070312 -7.441406 4.75 -9.453125 C 4.75 -9.597656 4.722656 -9.757812 4.671875 -9.9375 C 4.554688 -11.03125 4.320312 -11.867188 3.96875 -12.453125 C 3.625 -13.046875 2.847656 -13.023438 1.640625 -12.390625 C -1.347656 -10.691406 -4.113281 -8.707031 -6.65625 -6.4375 C -6.820312 -6.238281 -6.976562 -6.050781 -7.125 -5.875 C -7.125 -5.875 -7.15625 -5.832031 -7.21875 -5.75 C -7.382812 -5.519531 -7.410156 -5.257812 -7.296875 -4.96875 C -7.179688 -4.675781 -6.921875 -4.53125 -6.515625 -4.53125 C -3.554688 -4.070312 -0.648438 -4.363281 2.203125 -5.40625 Z M 2.203125 -5.40625 "/></g></g></g><g fill="#ffffff" fill-opacity="1"><g transform="translate(388.936811, 120.992879)"><g><path d="M 35.078125 -20.125 C 34.554688 -19.664062 34.007812 -19.25 33.4375 -18.875 C 31.59375 -17.726562 29.925781 -16.820312 28.4375 -16.15625 C 26.957031 -15.488281 25.210938 -14.8125 23.203125 -14.125 C 20.203125 -13.226562 18.273438 -13.425781 17.421875 -14.71875 C 16.578125 -16.019531 16.441406 -17.820312 17.015625 -20.125 C 17.828125 -23.40625 18.296875 -25.8125 18.421875 -27.34375 C 18.554688 -28.875 18.050781 -29.398438 16.90625 -28.921875 C 15.769531 -28.441406 13.707031 -26.863281 10.71875 -24.1875 C 6.539062 -20.59375 2.96875 -16.476562 0 -11.84375 C -0.375 -11.207031 -0.832031 -10.6875 -1.375 -10.28125 C -1.925781 -9.875 -2.601562 -9.671875 -3.40625 -9.671875 C -4.1875 -9.671875 -4.75 -9.875 -5.09375 -10.28125 C -5.4375 -10.6875 -5.453125 -11.234375 -5.140625 -11.921875 C -3.441406 -15.660156 -1.695312 -19.375 0.09375 -23.0625 C 3.144531 -29.457031 6.148438 -35.820312 9.109375 -42.15625 C 11.328125 -46.90625 13.519531 -51.660156 15.6875 -56.421875 C 17.007812 -59.210938 18.300781 -62.003906 19.5625 -64.796875 C 19.675781 -65.023438 19.804688 -65.269531 19.953125 -65.53125 C 20.066406 -65.84375 20.203125 -66.15625 20.359375 -66.46875 C 20.523438 -66.789062 20.707031 -67.140625 20.90625 -67.515625 C 21.082031 -67.835938 21.40625 -68.097656 21.875 -68.296875 C 22.351562 -68.492188 22.828125 -68.617188 23.296875 -68.671875 C 23.773438 -68.734375 24.144531 -68.707031 24.40625 -68.59375 C 24.78125 -68.332031 24.988281 -68.054688 25.03125 -67.765625 C 25.070312 -67.484375 25.019531 -67.1875 24.875 -66.875 C 24.820312 -66.8125 24.796875 -66.707031 24.796875 -66.5625 C 24.222656 -64.863281 23.617188 -63.222656 22.984375 -61.640625 C 19.328125 -52.828125 15.335938 -44.144531 11.015625 -35.59375 C 10.703125 -35.019531 10.328125 -34.328125 9.890625 -33.515625 C 9.253906 -32.367188 8.660156 -31.238281 8.109375 -30.125 C 7.566406 -29.019531 7.390625 -28.28125 7.578125 -27.90625 C 7.765625 -27.53125 8.625 -27.816406 10.15625 -28.765625 C 10.613281 -29.085938 11.03125 -29.40625 11.40625 -29.71875 C 12.613281 -30.519531 13.804688 -31.285156 14.984375 -32.015625 C 16.023438 -32.703125 17.179688 -33.070312 18.453125 -33.125 C 21.472656 -33.332031 23.171875 -31.96875 23.546875 -29.03125 C 23.691406 -27.84375 23.644531 -26.671875 23.40625 -25.515625 C 23.175781 -24.367188 22.90625 -23.238281 22.59375 -22.125 C 22.53125 -21.800781 22.472656 -21.484375 22.421875 -21.171875 C 21.898438 -19.210938 22.035156 -18.085938 22.828125 -17.796875 C 23.617188 -17.503906 24.726562 -17.660156 26.15625 -18.265625 C 27.582031 -18.878906 29.03125 -19.613281 30.5 -20.46875 C 31.507812 -20.988281 32.394531 -21.4375 33.15625 -21.8125 C 33.914062 -22.1875 34.484375 -22.347656 34.859375 -22.296875 C 35.546875 -22.179688 35.859375 -21.898438 35.796875 -21.453125 C 35.742188 -21.003906 35.503906 -20.5625 35.078125 -20.125 Z M 35.078125 -20.125 "/></g></g></g><g fill="#ffffff" fill-opacity="1"><g transform="translate(421.89364, 120.992879)"><g><path d="M 1.078125 -7.640625 C -1.660156 -7.640625 -3.03125 -9.066406 -3.03125 -11.921875 C -3.03125 -15.410156 -0.765625 -21.5625 3.765625 -30.375 C 3.929688 -30.738281 4.242188 -30.921875 4.703125 -30.921875 C 6.523438 -30.921875 7.4375 -30.203125 7.4375 -28.765625 C 7.4375 -28.242188 7.273438 -27.613281 6.953125 -26.875 C 6.835938 -26.664062 5.328125 -22.863281 2.421875 -15.46875 C 1.960938 -14.257812 1.734375 -13.363281 1.734375 -12.78125 C 1.734375 -12.15625 2.019531 -11.84375 2.59375 -11.84375 C 4.695312 -11.84375 10.210938 -17.066406 19.140625 -27.515625 C 20.285156 -28.929688 21.421875 -29.640625 22.546875 -29.640625 C 24.191406 -29.640625 25.015625 -29.03125 25.015625 -27.8125 C 25.015625 -27.351562 24.507812 -25.613281 23.5 -22.59375 C 22.113281 -18.476562 21.421875 -16.101562 21.421875 -15.46875 C 21.421875 -14.519531 21.738281 -14.046875 22.375 -14.046875 C 23.957031 -14.046875 28.582031 -16.863281 36.25 -22.5 C 36.675781 -22.875 37.046875 -23.0625 37.359375 -23.0625 C 38.085938 -23.0625 38.453125 -22.457031 38.453125 -21.25 C 38.453125 -20.9375 38.347656 -20.675781 38.140625 -20.46875 C 34.078125 -16.988281 30.625 -14.34375 27.78125 -12.53125 C 25.1875 -10.851562 22.878906 -10.015625 20.859375 -10.015625 L 20.265625 -10.015625 C 17.296875 -10.648438 15.8125 -12.972656 15.8125 -16.984375 C 12.644531 -14.179688 10.015625 -11.921875 7.921875 -10.203125 C 5.835938 -8.492188 3.554688 -7.640625 1.078125 -7.640625 Z M 1.078125 -7.640625 "/></g></g></g><g fill="#ffffff" fill-opacity="1"><g transform="translate(457.398886, 120.992879)"><g><path d="M 38.359375 -22.734375 C 38.960938 -22.578125 39.28125 -22.351562 39.3125 -22.0625 C 39.34375 -21.78125 39.359375 -21.640625 39.359375 -21.640625 C 38.660156 -20.429688 37.867188 -19.320312 36.984375 -18.3125 C 34.929688 -16.039062 32.550781 -14.226562 29.84375 -12.875 C 28.519531 -12.125 27.023438 -11.71875 25.359375 -11.65625 C 21.492188 -11.601562 19.722656 -13.476562 20.046875 -17.28125 C 20.191406 -18.082031 20.378906 -18.875 20.609375 -19.65625 C 20.753906 -20.03125 20.851562 -20.40625 20.90625 -20.78125 C 21.28125 -22.15625 21.390625 -22.921875 21.234375 -23.078125 C 21.078125 -23.242188 20.625 -22.851562 19.875 -21.90625 C 19.664062 -21.726562 19.476562 -21.539062 19.3125 -21.34375 C 18.15625 -19.957031 16.972656 -18.601562 15.765625 -17.28125 C 13.546875 -14.75 11.015625 -12.617188 8.171875 -10.890625 C 6.460938 -9.878906 4.660156 -9.34375 2.765625 -9.28125 C -0.347656 -9.144531 -2.09375 -10.570312 -2.46875 -13.5625 C -2.601562 -14.769531 -2.546875 -15.96875 -2.296875 -17.15625 C -1.023438 -22.050781 1.507812 -25.78125 5.3125 -28.34375 C 9.113281 -30.90625 13.460938 -31.8125 18.359375 -31.0625 C 19.742188 -30.65625 20.753906 -31.03125 21.390625 -32.1875 C 21.640625 -32.613281 21.894531 -33.054688 22.15625 -33.515625 C 23.476562 -35.796875 24.773438 -38.070312 26.046875 -40.34375 C 28.441406 -44.71875 30.847656 -49.125 33.265625 -53.5625 C 35.222656 -57.050781 37.179688 -60.566406 39.140625 -64.109375 C 39.710938 -65.203125 40.34375 -66.253906 41.03125 -67.265625 C 41.351562 -67.753906 41.75 -68.046875 42.21875 -68.140625 C 42.695312 -68.242188 43.195312 -68.296875 43.71875 -68.296875 C 43.832031 -68.296875 43.960938 -68.296875 44.109375 -68.296875 C 44.679688 -68.296875 45.140625 -68.148438 45.484375 -67.859375 C 45.828125 -67.578125 45.898438 -67.191406 45.703125 -66.703125 C 45.328125 -65.492188 44.878906 -64.335938 44.359375 -63.234375 C 41.710938 -57.941406 39.210938 -52.578125 36.859375 -47.140625 C 34.515625 -41.710938 32.207031 -36.25 29.9375 -30.75 C 29.1875 -28.851562 28.421875 -26.953125 27.640625 -25.046875 C 26.691406 -22.835938 25.898438 -20.566406 25.265625 -18.234375 C 25.097656 -17.710938 25.015625 -17.195312 25.015625 -16.6875 C 25.015625 -16.1875 25.257812 -15.75 25.75 -15.375 C 26.0625 -15.175781 26.390625 -15.140625 26.734375 -15.265625 C 27.078125 -15.398438 27.453125 -15.550781 27.859375 -15.71875 C 27.921875 -15.8125 28.007812 -15.882812 28.125 -15.9375 C 30.851562 -17.519531 33.359375 -19.421875 35.640625 -21.640625 C 36.015625 -22.015625 36.410156 -22.332031 36.828125 -22.59375 C 37.242188 -22.851562 37.753906 -22.898438 38.359375 -22.734375 Z M 17.015625 -25.53125 C 17.335938 -26.050781 17.429688 -26.546875 17.296875 -27.015625 C 17.171875 -27.492188 16.847656 -27.847656 16.328125 -28.078125 C 15.265625 -28.648438 14.128906 -28.722656 12.921875 -28.296875 C 9.953125 -27.398438 7.46875 -25.695312 5.46875 -23.1875 C 3.46875 -20.6875 2.378906 -17.925781 2.203125 -14.90625 C 2.265625 -14.757812 2.296875 -14.65625 2.296875 -14.59375 C 2.296875 -14.34375 2.296875 -14.085938 2.296875 -13.828125 C 2.546875 -12.441406 3.398438 -12.171875 4.859375 -13.015625 C 6.316406 -13.867188 7.941406 -15.242188 9.734375 -17.140625 C 11.535156 -19.046875 13.148438 -20.851562 14.578125 -22.5625 C 16.003906 -24.28125 16.816406 -25.269531 17.015625 -25.53125 Z M 17.015625 -25.53125 "/></g></g></g><g fill="#ffffff" fill-opacity="1"><g transform="translate(493.508844, 120.992879)"><g><path d="M 31.34375 -22 C 32.019531 -21.613281 32.066406 -20.675781 31.484375 -19.1875 C 30.648438 -18.082031 29.757812 -17.054688 28.8125 -16.109375 C 27.863281 -15.160156 26.828125 -14.3125 25.703125 -13.5625 C 25.617188 -13.5625 25.578125 -13.535156 25.578125 -13.484375 C 24.828125 -12.960938 24.035156 -12.515625 23.203125 -12.140625 C 16.316406 -9.660156 12.800781 -11.113281 12.65625 -16.5 C 9.863281 -14.082031 7.992188 -12.597656 7.046875 -12.046875 C 4.765625 -10.691406 2.300781 -10.085938 -0.34375 -10.234375 C -2.300781 -10.347656 -3.632812 -10.945312 -4.34375 -12.03125 C -5.050781 -13.113281 -4.984375 -14.578125 -4.140625 -16.421875 C -2.878906 -19.328125 -1.082031 -21.914062 1.25 -24.1875 C 3.988281 -26.71875 7.03125 -28.75 10.375 -30.28125 C 12.15625 -31.175781 14.023438 -31.519531 15.984375 -31.3125 C 17.941406 -31.195312 19.125 -30.085938 19.53125 -27.984375 C 19.695312 -27.359375 19.535156 -26.800781 19.046875 -26.3125 C 18.410156 -25.726562 17.675781 -25.597656 16.84375 -25.921875 C 16.789062 -25.921875 16.710938 -25.929688 16.609375 -25.953125 C 16.503906 -25.984375 16.425781 -26.03125 16.375 -26.09375 C 15.539062 -27.238281 14.695312 -27.71875 13.84375 -27.53125 C 13 -27.34375 12.097656 -26.960938 11.140625 -26.390625 C 6.710938 -23.796875 3.414062 -20.179688 1.25 -15.546875 C 1.132812 -15.347656 1.0625 -15.125 1.03125 -14.875 C 1.007812 -14.632812 1.082031 -14.441406 1.25 -14.296875 C 1.769531 -14.128906 2.347656 -14.164062 2.984375 -14.40625 C 3.617188 -14.65625 4.25 -15.015625 4.875 -15.484375 C 5.507812 -15.960938 6.046875 -16.359375 6.484375 -16.671875 C 6.535156 -16.753906 6.5625 -16.796875 6.5625 -16.796875 C 8.664062 -18.554688 10.726562 -20.359375 12.75 -22.203125 C 13.632812 -23.148438 14.738281 -23.679688 16.0625 -23.796875 C 17.96875 -23.796875 18.765625 -22.945312 18.453125 -21.25 C 18.273438 -20.613281 18.085938 -19.984375 17.890625 -19.359375 C 17.140625 -16.617188 17.109375 -15.007812 17.796875 -14.53125 C 18.484375 -14.0625 19.539062 -14.0625 20.96875 -14.53125 C 22.394531 -15.007812 23.820312 -15.914062 25.25 -17.25 C 26.675781 -18.59375 27.878906 -19.816406 28.859375 -20.921875 C 29.835938 -22.035156 30.664062 -22.394531 31.34375 -22 Z M 31.34375 -22 "/></g></g></g><g fill="#ffffff" fill-opacity="1"><g transform="translate(522.1463, 120.992879)"><g><path d="M 20.90625 -21.90625 C 16.351562 -20.207031 13.070312 -18.820312 11.0625 -17.75 C 9.59375 -17.03125 8.75 -16.429688 8.53125 -15.953125 C 8.3125 -15.484375 8.476562 -14.613281 9.03125 -13.34375 C 9.03125 -13.289062 9.070312 -13.207031 9.15625 -13.09375 C 9.789062 -11.5625 10.164062 -9.976562 10.28125 -8.34375 C 10.476562 -5.03125 7.660156 -2.707031 1.828125 -1.375 C -3.992188 -0.0507812 -7.890625 -0.0078125 -9.859375 -1.25 C -11.835938 -2.488281 -12.445312 -4.054688 -11.6875 -5.953125 C -10.925781 -7.859375 -8.945312 -9.789062 -5.75 -11.75 C -2.550781 -13.707031 -0.410156 -15.117188 0.671875 -15.984375 C 1.753906 -16.847656 2.078125 -17.8125 1.640625 -18.875 C 1.492188 -19.25 1.335938 -19.625 1.171875 -20 C 0.796875 -20.894531 0.40625 -21.816406 0 -22.765625 C -0.75 -24.492188 -1.070312 -26.191406 -0.96875 -27.859375 C -0.875 -29.535156 -0.257812 -30.941406 0.875 -32.078125 C 2.019531 -33.210938 3.785156 -33.820312 6.171875 -33.90625 C 7.523438 -33.96875 8.734375 -33.789062 9.796875 -33.375 C 10.867188 -32.957031 11.722656 -32.1875 12.359375 -31.0625 C 12.867188 -30.28125 12.707031 -29.570312 11.875 -28.9375 C 11.332031 -28.507812 10.742188 -28.453125 10.109375 -28.765625 C 9.703125 -28.941406 9.3125 -29.1875 8.9375 -29.5 C 8.9375 -29.59375 8.9375 -29.640625 8.9375 -29.640625 C 8.769531 -29.753906 8.613281 -29.867188 8.46875 -29.984375 C 8.289062 -30.242188 8.101562 -30.441406 7.90625 -30.578125 C 7.15625 -31.128906 6.398438 -31.296875 5.640625 -31.078125 C 4.878906 -30.859375 4.3125 -30.273438 3.9375 -29.328125 C 3.675781 -28.578125 3.546875 -27.816406 3.546875 -27.046875 C 3.597656 -26.085938 3.8125 -25.164062 4.1875 -24.28125 C 4.445312 -23.726562 4.675781 -23.222656 4.875 -22.765625 C 5.363281 -21.492188 5.765625 -20.617188 6.078125 -20.140625 C 6.398438 -19.671875 6.785156 -19.472656 7.234375 -19.546875 C 7.679688 -19.617188 11.765625 -21.082031 19.484375 -23.9375 C 21.148438 -24.476562 21.625 -23.800781 20.90625 -21.90625 Z M 2.203125 -5.40625 C 4.222656 -6.09375 5.070312 -7.441406 4.75 -9.453125 C 4.75 -9.597656 4.722656 -9.757812 4.671875 -9.9375 C 4.554688 -11.03125 4.320312 -11.867188 3.96875 -12.453125 C 3.625 -13.046875 2.847656 -13.023438 1.640625 -12.390625 C -1.347656 -10.691406 -4.113281 -8.707031 -6.65625 -6.4375 C -6.820312 -6.238281 -6.976562 -6.050781 -7.125 -5.875 C -7.125 -5.875 -7.15625 -5.832031 -7.21875 -5.75 C -7.382812 -5.519531 -7.410156 -5.257812 -7.296875 -4.96875 C -7.179688 -4.675781 -6.921875 -4.53125 -6.515625 -4.53125 C -3.554688 -4.070312 -0.648438 -4.363281 2.203125 -5.40625 Z M 2.203125 -5.40625 "/></g></g></g><g fill="#ffffff" fill-opacity="1"><g transform="translate(541.281135, 120.992879)"><g><path d="M 35.078125 -20.125 C 34.554688 -19.664062 34.007812 -19.25 33.4375 -18.875 C 31.59375 -17.726562 29.925781 -16.820312 28.4375 -16.15625 C 26.957031 -15.488281 25.210938 -14.8125 23.203125 -14.125 C 20.203125 -13.226562 18.273438 -13.425781 17.421875 -14.71875 C 16.578125 -16.019531 16.441406 -17.820312 17.015625 -20.125 C 17.828125 -23.40625 18.296875 -25.8125 18.421875 -27.34375 C 18.554688 -28.875 18.050781 -29.398438 16.90625 -28.921875 C 15.769531 -28.441406 13.707031 -26.863281 10.71875 -24.1875 C 6.539062 -20.59375 2.96875 -16.476562 0 -11.84375 C -0.375 -11.207031 -0.832031 -10.6875 -1.375 -10.28125 C -1.925781 -9.875 -2.601562 -9.671875 -3.40625 -9.671875 C -4.1875 -9.671875 -4.75 -9.875 -5.09375 -10.28125 C -5.4375 -10.6875 -5.453125 -11.234375 -5.140625 -11.921875 C -3.441406 -15.660156 -1.695312 -19.375 0.09375 -23.0625 C 3.144531 -29.457031 6.148438 -35.820312 9.109375 -42.15625 C 11.328125 -46.90625 13.519531 -51.660156 15.6875 -56.421875 C 17.007812 -59.210938 18.300781 -62.003906 19.5625 -64.796875 C 19.675781 -65.023438 19.804688 -65.269531 19.953125 -65.53125 C 20.066406 -65.84375 20.203125 -66.15625 20.359375 -66.46875 C 20.523438 -66.789062 20.707031 -67.140625 20.90625 -67.515625 C 21.082031 -67.835938 21.40625 -68.097656 21.875 -68.296875 C 22.351562 -68.492188 22.828125 -68.617188 23.296875 -68.671875 C 23.773438 -68.734375 24.144531 -68.707031 24.40625 -68.59375 C 24.78125 -68.332031 24.988281 -68.054688 25.03125 -67.765625 C 25.070312 -67.484375 25.019531 -67.1875 24.875 -66.875 C 24.820312 -66.8125 24.796875 -66.707031 24.796875 -66.5625 C 24.222656 -64.863281 23.617188 -63.222656 22.984375 -61.640625 C 19.328125 -52.828125 15.335938 -44.144531 11.015625 -35.59375 C 10.703125 -35.019531 10.328125 -34.328125 9.890625 -33.515625 C 9.253906 -32.367188 8.660156 -31.238281 8.109375 -30.125 C 7.566406 -29.019531 7.390625 -28.28125 7.578125 -27.90625 C 7.765625 -27.53125 8.625 -27.816406 10.15625 -28.765625 C 10.613281 -29.085938 11.03125 -29.40625 11.40625 -29.71875 C 12.613281 -30.519531 13.804688 -31.285156 14.984375 -32.015625 C 16.023438 -32.703125 17.179688 -33.070312 18.453125 -33.125 C 21.472656 -33.332031 23.171875 -31.96875 23.546875 -29.03125 C 23.691406 -27.84375 23.644531 -26.671875 23.40625 -25.515625 C 23.175781 -24.367188 22.90625 -23.238281 22.59375 -22.125 C 22.53125 -21.800781 22.472656 -21.484375 22.421875 -21.171875 C 21.898438 -19.210938 22.035156 -18.085938 22.828125 -17.796875 C 23.617188 -17.503906 24.726562 -17.660156 26.15625 -18.265625 C 27.582031 -18.878906 29.03125 -19.613281 30.5 -20.46875 C 31.507812 -20.988281 32.394531 -21.4375 33.15625 -21.8125 C 33.914062 -22.1875 34.484375 -22.347656 34.859375 -22.296875 C 35.546875 -22.179688 35.859375 -21.898438 35.796875 -21.453125 C 35.742188 -21.003906 35.503906 -20.5625 35.078125 -20.125 Z M 35.078125 -20.125 "/></g></g></g></svg>